<svg width="173" height="173" viewBox="0 0 173 173" fill="none" xmlns="http://www.w3.org/2000/svg">
<path d="M130.835 19.9792C130.025 19.6154 129.454 19.463 129.121 19.522C128.777 19.5839 128.377 20.0062 127.921 20.789L122.541 30.0105C122.112 30.7461 121.944 31.2902 122.037 31.6428C122.126 32.0021 122.539 32.4332 123.277 32.9359L123.053 33.3206L117.192 29.9017L117.416 29.5171C118.202 29.9214 118.788 30.0957 119.173 30.0401C119.552 29.9805 119.942 29.6065 120.343 28.9182L126.153 18.9577C126.287 18.7283 126.356 18.5244 126.361 18.3461C126.355 18.1707 126.23 17.9893 125.986 17.8021C125.843 17.6913 125.689 17.5833 125.524 17.4782C125.353 17.3691 125.031 17.1767 124.558 16.9012C122.716 15.8265 121.382 15.2521 120.557 15.1778C119.732 15.1036 118.652 15.5136 117.317 16.4077L116.79 16.1007L119.899 13.0977L131.053 19.6047L130.835 19.9792Z" fill="#333333"/>
<path d="M113.092 16.2556C112.647 17.7452 111.8 18.8619 110.55 19.6057C109.291 20.3547 107.917 20.5068 106.427 20.0618C104.945 19.619 103.863 18.7657 103.18 17.5019C102.498 16.2381 102.398 14.7977 102.881 13.1808C103.326 11.6912 104.184 10.537 105.456 9.71838C106.728 8.89974 108.113 8.71404 109.61 9.16126C111.047 9.5906 112.106 10.4817 112.786 11.8346C113.467 13.1875 113.569 14.6611 113.092 16.2556ZM106.943 19.482C107.534 19.6586 108.105 19.6172 108.655 19.3576C109.608 18.9 110.333 17.8366 110.832 16.1673C111.23 14.8349 111.301 13.5028 111.047 12.1711C110.785 10.8372 110.119 10.0104 109.048 9.6906C108.21 9.44015 107.451 9.63335 106.771 10.2702C106.084 10.9048 105.554 11.8472 105.181 13.0973C104.794 14.3923 104.718 15.6986 104.952 17.016C105.186 18.3335 105.85 19.1555 106.943 19.482Z" fill="#333333"/>
<path d="M98.1724 7.2923C97.451 7.28455 96.9645 7.36257 96.713 7.52637C96.4608 7.69794 96.3042 8.09475 96.2434 8.71678L95.729 13.9768C95.6537 14.7466 95.674 15.302 95.7898 15.643C95.897 15.991 96.1412 16.1837 96.5222 16.2209C96.5999 16.2285 96.706 16.2271 96.8405 16.2167C96.9664 16.2134 97.1009 16.203 97.2439 16.1856L97.2062 16.5704C96.7478 16.6826 96.2774 16.7975 95.7949 16.9152C95.3124 17.0328 94.9783 17.1179 94.7926 17.1704C94.3894 17.2801 93.9726 17.4081 93.5423 17.5544C93.4879 17.5491 93.4587 17.5266 93.4547 17.487C93.4429 17.4466 93.4431 17.3642 93.4553 17.2398L93.6424 15.327C93.0771 15.9704 92.546 16.464 92.0493 16.8079C91.5447 17.1511 91.0436 17.2983 90.546 17.2497C90.1495 17.2109 89.8386 17.0588 89.6133 16.7934C89.3873 16.5358 89.2918 16.2282 89.3268 15.8705C89.358 15.5517 89.4814 15.293 89.6971 15.0943C89.905 14.8948 90.1528 14.8092 90.4404 14.8373C90.7359 14.8662 91.022 15.0315 91.2986 15.3333C91.5674 15.6344 91.7874 15.7932 91.9585 15.81C92.2306 15.8366 92.5866 15.6477 93.0265 15.2433C93.4656 14.8466 93.708 14.415 93.7536 13.9485L94.268 8.68845C94.3334 8.01976 94.2235 7.53803 93.9384 7.24325C93.6524 6.95625 93.1471 6.78517 92.4225 6.73L92.4602 6.34512L98.2101 6.90741L98.1724 7.2923Z" fill="#333333"/>
<path d="M80.3882 17.413C79.291 17.5108 78.296 17.2151 77.4032 16.526C76.511 15.8447 76.0029 14.8076 75.8787 13.4147L83.2908 12.7541C83.052 10.9557 82.5263 9.677 81.7135 8.91803C80.9007 8.15906 79.9885 7.82466 78.9769 7.91483C78.1599 7.98765 77.4903 8.26303 76.9681 8.74095C76.446 9.21888 75.9826 9.87197 75.578 10.7002L75.157 10.5966C75.3879 9.57986 75.9056 8.61212 76.71 7.69332C77.5067 6.77523 78.5392 6.25965 79.8076 6.1466C81.2706 6.01621 82.452 6.46779 83.352 7.50135C84.2442 8.5356 84.7545 9.77253 84.8828 11.2121C85.0222 12.7762 84.6796 14.1676 83.8548 15.3863C83.03 16.6049 81.8745 17.2805 80.3882 17.413ZM80.9893 16.5005C81.8764 16.4215 82.5184 15.9682 82.9152 15.1406C83.1268 14.6982 83.2586 14.1531 83.3107 13.5053L78.3849 13.9443C78.5398 14.7149 78.7393 15.2814 78.9834 15.644C79.4258 16.2948 80.0944 16.5803 80.9893 16.5005Z" fill="#333333"/>
<path d="M68.0087 8.09604C67.454 8.35413 67.1063 8.58743 66.9655 8.79596C66.7484 9.11506 66.755 9.59433 66.9855 10.2337L69.04 15.9334C69.2361 16.4772 69.438 16.8072 69.646 16.9233C69.8465 17.042 70.1122 17.0417 70.4429 16.9225C70.5973 16.8669 70.7122 16.8171 70.7878 16.7733C70.856 16.7321 70.9349 16.6746 71.0245 16.6007L71.1636 16.9866L70.4652 17.5373C70.213 17.7362 69.8049 18.0784 69.2409 18.5641C68.6768 19.0498 68.3764 19.2992 68.3397 19.3125C68.3029 19.3257 68.2743 19.3153 68.2537 19.2812C68.2331 19.2471 68.2042 19.1786 68.1671 19.0757L67.6307 17.5874C67.1415 18.5111 66.6774 19.1933 66.2383 19.634C65.8018 20.0819 65.3043 20.4066 64.7457 20.6079C63.9887 20.8808 63.2933 20.8408 62.6596 20.4879C62.3237 20.2934 61.9925 19.9851 61.666 19.563C61.3208 20.3103 60.9938 20.8891 60.6849 21.2994C60.1509 22.0067 59.5202 22.4915 58.7926 22.7538C57.6093 23.1804 56.6457 22.9837 55.9017 22.164C55.4778 21.7023 55.054 20.8834 54.6301 19.7075L52.9809 15.1324C52.7928 14.6105 52.5504 14.2951 52.2537 14.1862C51.9523 14.0872 51.4897 14.117 50.8658 14.2754L50.7625 13.9888L55.7345 12.1965L55.8458 12.5052C55.2275 12.7945 54.855 13.0741 54.7281 13.3441C54.5938 13.6167 54.6366 14.058 54.8565 14.6681L56.5692 19.4196C56.8262 20.1325 57.0928 20.6302 57.369 20.9126C57.8582 21.4173 58.4996 21.5265 59.2934 21.2404C59.7711 21.0682 60.1882 20.7393 60.5447 20.2537C60.7504 19.972 60.9788 19.5574 61.23 19.0102L59.1954 13.3657C58.9808 12.7703 58.715 12.3554 58.3979 12.1209C58.0735 11.8891 57.5692 11.884 56.8851 12.1057L56.7818 11.819L61.842 9.99503L61.9453 10.2817C61.2789 10.6215 60.8952 10.9509 60.7942 11.2696C60.6932 11.5884 60.8188 12.2365 61.1712 13.214L62.2838 16.3009C62.6918 17.4327 63.0461 18.1853 63.3468 18.5586C63.849 19.1914 64.4932 19.3661 65.2797 19.0826C65.728 18.921 66.1239 18.6371 66.4675 18.2309C66.8137 17.8321 67.0806 17.3746 67.2683 16.8585L65.0946 10.8282C64.8932 10.2696 64.6586 9.91817 64.3907 9.77391C64.1154 9.6323 63.6494 9.67571 62.9926 9.90415L62.8893 9.61751L67.9054 7.80941L68.0087 8.09604Z" fill="#333333"/>
<path d="M44.8369 36.3627C45.0581 36.6156 45.1603 36.9103 45.1433 37.2469C45.1264 37.5835 44.9885 37.865 44.7298 38.0913C44.477 38.3125 44.1826 38.4091 43.8467 38.3811C43.5101 38.3642 43.2287 38.2264 43.0023 37.9676C42.7812 37.7148 42.682 37.4175 42.7048 37.0758C42.7269 36.745 42.8644 36.4691 43.1172 36.2479C43.3759 36.0216 43.6706 35.9194 44.0014 35.9415C44.3372 35.9695 44.6158 36.1099 44.8369 36.3627ZM36.2208 24.2353C35.6431 24.8445 35.3388 25.2975 35.3079 25.5944C35.2821 25.8972 35.5702 26.3926 36.172 27.0806L39.8524 31.2878C40.1868 31.67 40.4447 31.9114 40.6263 32.0122C40.9254 32.1761 41.216 32.1346 41.4983 31.8877C41.563 31.8311 41.6225 31.7686 41.6769 31.7003C41.7254 31.6371 41.8606 31.4357 42.0826 31.0962L42.3218 31.3696L42.0506 31.8249C41.3148 33.0603 40.8186 33.9407 40.562 34.4661C40.4591 34.6807 40.3841 34.8086 40.3371 34.8497C40.2893 34.8188 40.2449 34.7799 40.2037 34.7328L34.6638 28.4C34.0774 27.7296 33.6302 27.3787 33.3222 27.347C33.0084 27.3205 32.5458 27.5332 31.9342 27.9851L31.7182 27.7382L36.0048 23.9883L36.2208 24.2353Z" fill="#333333"/>
<path d="M26.4875 36.4414C25.9442 36.273 25.4451 36.2635 24.9901 36.4128C24.5364 36.5731 24.1407 36.8683 23.803 37.2984C23.2819 37.962 23.1667 38.7854 23.4574 39.7686C23.7495 40.7629 24.4854 41.7232 25.6651 42.6496C26.7956 43.5374 27.8335 43.9551 28.7786 43.9027C29.719 43.8563 30.4424 43.5106 30.9491 42.8654C31.3061 42.4108 31.4905 41.885 31.5022 41.2883C31.52 40.6963 31.3938 40.2942 31.1234 40.0819L26.4875 36.4414ZM23.2868 29.1896C22.8701 29.7961 22.7059 30.2582 22.7942 30.5759C22.8776 30.8997 23.1436 31.2377 23.5922 31.5899L32.4401 38.5381C32.907 38.9048 33.2509 39.0805 33.4716 39.065C33.6936 39.0606 33.9277 38.9017 34.1738 38.5883C34.2268 38.5207 34.2744 38.4538 34.3165 38.3875C34.3538 38.3274 34.4067 38.2348 34.4751 38.1098L34.7792 38.3486L34.3774 39.4485C34.3594 39.4841 34.0864 40.2681 33.5585 41.8005C33.5344 41.8312 33.5022 41.8406 33.4618 41.8288C33.4227 41.8279 33.3848 41.813 33.3479 41.7841L32.1037 40.807C32.1907 41.531 32.212 42.1238 32.1673 42.5854C32.0771 43.4086 31.8029 44.1121 31.3445 44.6958C30.6786 45.5437 29.7443 45.9871 28.5416 46.026C27.3402 46.0759 26.1128 45.6087 24.8593 44.6244C23.6304 43.6594 22.8047 42.415 22.3822 40.8911C21.9549 39.3735 22.1779 38.0586 23.0512 36.9464C23.3214 36.6023 23.5985 36.3381 23.8823 36.1537C24.3201 35.8618 24.8414 35.6851 25.446 35.6235L22.4322 33.2568C21.8116 32.7694 21.3511 32.5717 21.0505 32.6634C20.75 32.7552 20.3073 33.1228 19.7226 33.7663L19.4 33.5129L22.9827 28.9507L23.2868 29.1896Z" fill="#333333"/>
<path d="M19.643 49.0112L19.4713 49.3577C18.5935 49.1233 17.8735 49.0368 17.3112 49.0982C16.2844 49.1997 15.5368 49.723 15.0685 50.668C14.8084 51.1931 14.7472 51.6772 14.8851 52.1204C15.0265 52.5741 15.3282 52.9154 15.7902 53.1444C16.0842 53.29 16.4111 53.343 16.7708 53.3033C17.1305 53.2636 17.5491 53.0874 18.0267 52.7747L19.2814 51.9317C20.1701 51.2996 20.9495 50.8967 21.6197 50.7231C22.2899 50.5495 22.9436 50.6205 23.5806 50.9362C24.3646 51.3247 24.8699 51.9238 25.0964 52.7336C25.3229 53.5433 25.2263 54.3717 24.8066 55.2187C24.6228 55.5898 24.3516 55.9611 23.993 56.3327C23.631 56.7114 23.4362 56.9287 23.4084 56.9847C23.346 57.1107 23.3184 57.2104 23.3256 57.2837C23.3329 57.3571 23.3646 57.4338 23.4208 57.514L23.2959 57.766L20.3299 56.3878L20.4912 56.0623C21.2396 56.2588 21.8618 56.3317 22.3577 56.281C23.2728 56.1938 23.9333 55.7407 24.3391 54.9217C24.5819 54.4317 24.6222 53.9721 24.4599 53.5429C24.2977 53.1138 24.0135 52.7986 23.6075 52.5974C22.9635 52.2783 22.1501 52.4769 21.1674 53.1932L19.7351 54.2098C18.1842 55.2985 16.8698 55.5757 15.7918 55.0415C14.9657 54.6322 14.4446 53.986 14.2283 53.1028C14.0085 52.2266 14.1466 51.288 14.6427 50.287C14.8508 49.867 15.1566 49.4257 15.5603 48.963C15.9639 48.5004 16.19 48.22 16.2386 48.122C16.2802 48.038 16.2851 47.9489 16.2533 47.8547C16.2285 47.764 16.1828 47.6803 16.1162 47.6036L16.2514 47.3306L19.643 49.0112Z" fill="#333333"/>
<path d="M19.9864 66.6839L12.7278 64.7965C12.2137 64.6628 11.7829 64.6275 11.4355 64.6905C10.7882 64.8208 10.3671 65.2603 10.1725 66.0088C10.0388 66.523 10.0782 67.07 10.2906 67.65C10.4069 67.9789 10.594 68.3303 10.852 68.7041L17.0672 70.3202C17.6494 70.4716 18.0607 70.4575 18.3012 70.2778C18.5416 70.0982 18.7692 69.673 18.984 69.0024L19.3583 69.0997L18.4057 72.763L10.4212 70.6868C9.90705 70.5531 9.52809 70.5515 9.28431 70.6818C9.04613 70.8217 8.86072 71.1932 8.72809 71.7964L8.41052 71.7139C8.40524 71.2685 8.39792 70.9397 8.38855 70.7274C8.38674 70.517 8.37019 70.1616 8.3389 69.661C8.32197 69.4467 8.27147 68.9735 8.18742 68.2413C8.19725 68.2035 8.22205 68.1857 8.26182 68.188C8.29403 68.1883 8.33282 68.1943 8.37818 68.2061L10.2042 68.6809C9.72543 68.0075 9.39366 67.4208 9.20888 66.9207C8.92234 66.16 8.87246 65.4205 9.05924 64.7022C9.23029 64.0444 9.6259 63.4854 10.2461 63.0251C10.8607 62.5552 11.7123 62.4619 12.8011 62.745L18.6874 64.2756C19.2923 64.4329 19.7302 64.4095 20.0012 64.2056C20.173 64.0726 20.3562 63.7409 20.5507 63.2102L20.8682 63.2928L19.9864 66.6839Z" fill="#333333"/>
<path d="M6.55324 77.9618C6.61347 78.5707 6.71873 78.976 6.86901 79.1777C7.09841 79.4882 7.55293 79.6403 8.23259 79.6341L14.2909 79.579C14.869 79.5737 15.2472 79.4921 15.4255 79.3343C15.6038 79.1842 15.6914 78.9334 15.6882 78.5818C15.6867 78.4178 15.6777 78.2929 15.6613 78.2071C15.645 78.1291 15.6168 78.0356 15.5767 77.9266L15.9869 77.9228L16.2758 78.764C16.3801 79.0677 16.5683 79.5661 16.8402 80.2589C17.1121 80.9518 17.2483 81.3177 17.2486 81.3568C17.249 81.3959 17.2297 81.4195 17.1907 81.4277C17.1517 81.4358 17.0775 81.4404 16.9682 81.4414L15.3862 81.4558C16.0963 82.2228 16.5868 82.8863 16.8575 83.4464C17.136 84.0064 17.278 84.5832 17.2834 85.177C17.2907 85.9816 17.0231 86.6247 16.4806 87.1062C16.186 87.3589 15.7856 87.5696 15.2793 87.7383C15.8705 88.311 16.3086 88.811 16.5938 89.2381C17.0849 89.9758 17.334 90.7314 17.341 91.5048C17.3524 92.7626 16.8484 93.6071 15.8288 94.0382C15.2529 94.2857 14.34 94.4151 13.0901 94.4264L8.22697 94.4707C7.67231 94.4757 7.29452 94.6003 7.09361 94.8443C6.90058 95.0961 6.77573 95.5425 6.71906 96.1837L6.41439 96.1865L6.36629 90.9015L6.69441 90.8986C6.76309 91.5776 6.90385 92.0217 7.1167 92.2307C7.32962 92.4475 7.76029 92.553 8.4087 92.5471L13.4593 92.5011C14.2171 92.4942 14.7749 92.4071 15.1327 92.2398C15.7707 91.9449 16.0859 91.3756 16.0782 90.5319C16.0736 90.0241 15.901 89.5218 15.5605 89.0248C15.3626 88.7376 15.0469 88.3849 14.6134 87.967L8.61362 88.0216C7.98083 88.0274 7.50138 88.1411 7.17526 88.3628C6.84921 88.5924 6.67774 89.0666 6.66084 89.7855L6.35616 89.7883L6.30722 84.4096L6.61189 84.4069C6.71239 85.1482 6.89637 85.6192 7.16384 85.8199C7.4313 86.0206 8.08454 86.1162 9.12356 86.1067L12.4047 86.0769C13.6077 86.0659 14.4351 85.9803 14.8868 85.8199C15.6501 85.5551 16.0279 85.0048 16.0203 84.1689C16.0159 83.6923 15.8789 83.2248 15.6091 82.7663C15.3471 82.3077 15.0035 81.9046 14.5785 81.5569L8.16859 81.6152C7.57486 81.6206 7.16565 81.7259 6.94094 81.9311C6.71631 82.1441 6.60325 82.5983 6.60176 83.2936L6.29709 83.2964L6.24857 77.9646L6.55324 77.9618Z" fill="#333333"/>
<path d="M23.1145 113.864C23.3439 114.386 23.44 114.915 23.4029 115.452C23.3784 115.804 23.2919 116.171 23.1436 116.552L26.5553 115.053C26.9916 114.861 27.27 114.679 27.3906 114.507C27.5142 114.341 27.4959 114.076 27.3356 113.712C27.2979 113.626 27.2613 113.552 27.2259 113.491C27.1905 113.43 27.1133 113.293 26.9944 113.081L27.3485 112.925L27.9603 113.706C28.1876 113.99 28.4184 114.273 28.6528 114.554C28.8872 114.835 29.1007 115.078 29.2934 115.283C29.3795 115.382 29.5307 115.542 29.7471 115.762L29.7539 115.836L28.618 116.31C28.2072 116.482 27.782 116.66 27.3426 116.845C26.9103 117.026 26.4831 117.209 26.0611 117.395L17.2862 121.225C16.8213 121.429 16.521 121.629 16.3854 121.825C16.2497 122.021 16.2902 122.366 16.5071 122.86C16.5417 122.938 16.5762 123.017 16.6108 123.096C16.6525 123.171 16.6978 123.245 16.7467 123.318L16.3926 123.473C16.3595 123.437 15.9528 122.997 15.1727 122.153L13.7996 120.747L13.8631 120.629L15.1828 120.05C14.5705 119.841 14.1069 119.631 13.7921 119.419C13.2408 119.038 12.8144 118.505 12.5127 117.818C11.9784 116.602 12.0132 115.409 12.6171 114.239C13.2312 113.074 14.157 112.219 15.3944 111.675C16.9465 110.993 18.4749 110.859 19.9795 111.273C21.4944 111.691 22.5394 112.555 23.1145 113.864ZM14.1051 118.296C14.3502 118.854 14.7127 119.232 15.1925 119.431C15.6724 119.63 16.059 119.665 16.3522 119.536L20.9549 117.514C21.8847 117.105 22.4292 116.567 22.5883 115.9C22.7577 115.237 22.7387 114.669 22.5312 114.197C22.1353 113.296 21.4267 112.771 20.4057 112.622C19.3918 112.47 18.3019 112.65 17.136 113.163C15.9844 113.669 15.0743 114.384 14.4057 115.31C13.7401 116.242 13.6399 117.237 14.1051 118.296Z" fill="#333333"/>
<path d="M23.0417 126.196C24.2956 125.277 25.6452 124.898 27.0904 125.06C28.5465 125.223 29.7341 125.931 30.6531 127.185C31.5676 128.433 31.9154 129.766 31.6967 131.186C31.4779 132.605 30.688 133.814 29.3269 134.811C28.073 135.73 26.6919 136.132 25.1837 136.017C23.6755 135.902 22.4596 135.215 21.5359 133.954C20.6491 132.745 20.3429 131.395 20.6171 129.906C20.8913 128.417 21.6995 127.18 23.0417 126.196ZM29.8921 127.336C29.5272 126.838 29.047 126.527 28.4515 126.401C27.4162 126.191 26.196 126.601 24.7908 127.631C23.6692 128.453 22.808 129.472 22.207 130.687C21.6107 131.909 21.6428 132.97 22.3032 133.872C22.8205 134.577 23.5422 134.881 24.4683 134.784C25.3991 134.692 26.3906 134.261 27.4429 133.49C28.533 132.691 29.3823 131.695 29.9908 130.504C30.5993 129.312 30.5663 128.256 29.8921 127.336Z" fill="#333333"/>
<path d="M29.7753 142.629C30.354 143.074 30.8122 143.305 31.1499 143.321C31.493 143.332 31.8859 143.1 32.3289 142.627L40.1492 134.265C40.5014 133.888 40.7128 133.599 40.7835 133.398C40.8935 133.051 40.7745 132.715 40.4264 132.39C40.3465 132.315 40.25 132.241 40.137 132.167C40.0297 132.099 39.8887 132.015 39.7141 131.916L39.9782 131.634C40.9406 132.149 42.124 132.742 43.5283 133.414C43.5683 133.451 43.5751 133.489 43.5488 133.529C43.5282 133.574 43.4645 133.653 43.3578 133.767L33.7604 144.03C33.2962 144.526 33.0803 144.929 33.1127 145.237C33.1505 145.54 33.4189 145.962 33.9179 146.504L33.6938 146.743L29.5512 142.869L29.7753 142.629Z" fill="#333333"/>
<path d="M41.9134 146.58C42.7465 145.268 43.8654 144.423 45.27 144.047C46.6855 143.669 48.0495 143.896 49.3621 144.729C50.6681 145.558 51.4778 146.673 51.791 148.075C52.1042 149.477 51.8087 150.89 50.9044 152.315C50.0712 153.627 48.9314 154.505 47.4849 154.947C46.0384 155.389 44.6555 155.191 43.3363 154.354C42.0699 153.55 41.2931 152.405 41.0062 150.918C40.7192 149.431 41.0216 147.985 41.9134 146.58ZM48.7083 145.147C48.1872 144.816 47.6265 144.701 47.0263 144.801C45.9857 144.983 44.9986 145.809 44.065 147.28C43.3198 148.454 42.8886 149.716 42.7716 151.067C42.6611 152.422 43.0775 153.399 44.0207 153.997C44.7595 154.466 45.5424 154.487 46.3693 154.058C47.2029 153.634 47.9693 152.872 48.6685 151.77C49.3927 150.629 49.8212 149.393 49.9538 148.061C50.0865 146.73 49.6713 145.758 48.7083 145.147Z" fill="#333333"/>
<path d="M53.8346 159.262C54.5267 159.466 55.0161 159.523 55.3026 159.433C55.592 159.337 55.8505 158.998 56.0782 158.415L58.0029 153.493C58.2846 152.773 58.416 152.233 58.3973 151.873C58.3887 151.509 58.2061 151.257 57.8496 151.118C57.7768 151.09 57.6743 151.062 57.5421 151.036C57.42 151.005 57.2877 150.978 57.1454 150.956L57.2862 150.596C57.7579 150.612 58.2418 150.63 58.7381 150.648C59.2345 150.666 59.5791 150.674 59.772 150.674C60.1899 150.678 60.6258 150.669 61.0797 150.645C61.1306 150.665 61.1526 150.694 61.1457 150.733C61.146 150.775 61.1234 150.855 61.0779 150.971L60.378 152.761C61.0968 152.296 61.7421 151.965 62.3136 151.769C62.8924 151.576 63.4147 151.57 63.8803 151.752C64.2514 151.897 64.5093 152.128 64.6539 152.445C64.8014 152.754 64.8097 153.076 64.6788 153.411C64.5621 153.709 64.373 153.925 64.1115 154.057C63.8572 154.193 63.5954 154.208 63.3262 154.103C63.0497 153.994 62.8194 153.758 62.6352 153.392C62.4583 153.029 62.2898 152.817 62.1297 152.754C61.8751 152.654 61.4811 152.739 60.9479 153.009C60.4175 153.271 60.0669 153.621 59.8962 154.057L57.9715 158.98C57.7268 159.605 57.7016 160.099 57.8959 160.46C58.093 160.814 58.5328 161.116 59.2152 161.366L59.0743 161.726L53.6937 159.622L53.8346 159.262Z" fill="#333333"/>
<path d="M78.8436 162.562L79.2298 162.582C79.3635 163.48 79.5702 164.176 79.85 164.667C80.3512 165.569 81.1284 166.047 82.1817 166.101C82.7669 166.131 83.2354 165.995 83.5874 165.693C83.9476 165.383 84.1409 164.97 84.1674 164.455C84.1843 164.127 84.103 163.806 83.9236 163.492C83.7442 163.178 83.4162 162.864 82.9395 162.55L81.6673 161.733C80.7341 161.169 80.0547 160.614 79.6291 160.068C79.2034 159.522 79.0089 158.894 79.0454 158.184C79.0904 157.31 79.4394 156.608 80.0925 156.078C80.7456 155.549 81.5441 155.308 82.4882 155.357C82.9017 155.378 83.3502 155.479 83.8337 155.661C84.3251 155.842 84.6019 155.935 84.6643 155.938C84.8048 155.945 84.9072 155.931 84.9716 155.895C85.0361 155.86 85.0939 155.8 85.1451 155.717L85.426 155.731L85.3399 159L84.9771 158.982C84.86 158.217 84.6796 157.617 84.4361 157.182C83.9925 156.377 83.3142 155.951 82.4014 155.904C81.8552 155.876 81.4175 156.021 81.0881 156.341C80.7588 156.66 80.5825 157.046 80.5592 157.499C80.5222 158.217 81.0277 158.884 82.0755 159.501L83.5775 160.412C85.1928 161.402 85.9696 162.498 85.9077 163.7C85.8603 164.62 85.4744 165.356 84.7499 165.905C84.0332 166.455 83.117 166.701 82.0013 166.644C81.5331 166.62 81.0066 166.514 80.4217 166.328C79.8367 166.141 79.4897 166.045 79.3804 166.039C79.2868 166.035 79.2031 166.065 79.1292 166.132C79.0558 166.191 78.9972 166.266 78.9534 166.358L78.6491 166.342L78.8436 162.562Z" fill="#333333"/>
<path d="M92.9346 151.121C92.8937 150.787 92.9748 150.486 93.1779 150.217C93.381 149.948 93.6532 149.793 93.9944 149.751C94.3278 149.71 94.6256 149.796 94.8877 150.008C95.1567 150.211 95.3121 150.483 95.3539 150.824C95.3948 151.157 95.3099 151.459 95.099 151.729C94.8949 151.99 94.6261 152.141 94.2927 152.182C93.9515 152.224 93.6503 152.143 93.3891 151.939C93.127 151.727 92.9755 151.454 92.9346 151.121ZM93.2486 165.994C94.0687 165.815 94.575 165.611 94.7674 165.383C94.9588 165.147 94.9989 164.575 94.8876 163.668L94.2067 158.12C94.1448 157.616 94.0671 157.271 93.9735 157.086C93.8182 156.782 93.5544 156.653 93.1822 156.699C93.0969 156.709 93.0126 156.727 92.9292 156.753C92.8535 156.778 92.6285 156.869 92.2541 157.025L92.2099 156.665L92.6901 156.44C93.9928 155.832 94.8979 155.382 95.4054 155.092C95.6111 154.972 95.745 154.908 95.807 154.901C95.8292 154.953 95.8441 155.01 95.8517 155.072L96.8765 163.424C96.985 164.308 97.1577 164.849 97.3947 165.049C97.6394 165.247 98.1417 165.331 98.9015 165.3L98.9414 165.626L93.2885 166.32L93.2486 165.994Z" fill="#333333"/>
<path d="M107.968 152.398L108.199 153.21L105.899 153.862L107.718 160.363C107.88 160.934 108.051 161.352 108.232 161.618C108.56 162.085 108.986 162.244 109.513 162.095C109.783 162.018 109.998 161.888 110.157 161.705C110.324 161.52 110.496 161.252 110.672 160.901L111.036 161.066L110.884 161.475C110.642 162.112 110.334 162.601 109.96 162.943C109.586 163.284 109.196 163.513 108.79 163.628C107.903 163.879 107.19 163.655 106.65 162.955C106.356 162.576 106.101 162.007 105.886 161.248L103.948 154.416L102.719 154.764C102.675 154.752 102.639 154.738 102.61 154.722C102.589 154.704 102.573 154.676 102.562 154.638C102.541 154.563 102.54 154.502 102.559 154.456C102.584 154.401 102.665 154.272 102.803 154.07C103.2 153.495 103.474 153.044 103.625 152.717C103.781 152.38 104.122 151.52 104.647 150.137C104.745 150.109 104.803 150.101 104.823 150.111C104.85 150.12 104.877 150.173 104.905 150.271L105.691 153.044L107.968 152.398Z" fill="#333333"/>
<path d="M129.146 146.501C128.57 147.252 128.141 147.941 127.859 148.568C127.32 149.775 127.299 150.744 127.796 151.474C128.196 152.062 128.684 152.362 129.261 152.376C129.636 152.386 129.978 152.285 130.288 152.074C130.715 151.784 131.04 151.387 131.265 150.885C131.496 150.377 131.487 149.94 131.236 149.572L129.146 146.501ZM126.527 153.316C125.889 152.38 125.826 151.28 126.336 150.016C126.666 149.224 127.493 147.891 128.816 146.017L128.255 145.193C127.807 144.534 127.43 144.12 127.125 143.949C126.611 143.666 126.008 143.76 125.317 144.23C124.988 144.454 124.732 144.752 124.549 145.122C124.371 145.498 124.385 145.838 124.592 146.142C124.644 146.219 124.751 146.341 124.91 146.506C125.066 146.665 125.161 146.77 125.196 146.822C125.442 147.184 125.494 147.517 125.352 147.822C125.274 147.998 125.141 148.15 124.954 148.277C124.663 148.475 124.376 148.533 124.094 148.451C123.807 148.363 123.584 148.203 123.426 147.97C123.118 147.518 123.075 146.858 123.296 145.989C123.52 145.109 124.171 144.302 125.249 143.568C126.502 142.715 127.628 142.544 128.628 143.054C129.17 143.337 129.731 143.905 130.312 144.757L132.956 148.642C133.211 149.016 133.413 149.257 133.561 149.364C133.817 149.559 134.077 149.566 134.342 149.386C134.49 149.285 134.597 149.178 134.663 149.067C134.73 148.956 134.823 148.732 134.943 148.395L135.286 148.899C135.251 149.291 135.169 149.65 135.04 149.974C134.845 150.465 134.56 150.839 134.186 151.094C133.747 151.393 133.33 151.468 132.937 151.32C132.549 151.168 132.212 150.901 131.925 150.521C131.724 151.281 131.519 151.883 131.311 152.327C130.961 153.076 130.521 153.631 129.992 153.991C129.436 154.369 128.823 154.503 128.153 154.393C127.478 154.276 126.936 153.917 126.527 153.316Z" fill="#333333"/>
<path d="M140.82 145.666C141.179 145.17 141.369 144.797 141.39 144.546C141.425 144.162 141.185 143.746 140.673 143.3L136.102 139.323C135.666 138.944 135.329 138.754 135.09 138.754C134.857 138.748 134.626 138.878 134.395 139.143C134.287 139.267 134.211 139.366 134.166 139.441C134.127 139.51 134.086 139.599 134.044 139.707L133.734 139.438L134.076 138.617C134.199 138.32 134.389 137.823 134.645 137.124C134.901 136.425 135.042 136.061 135.067 136.031C135.093 136.002 135.123 135.997 135.158 136.017C135.192 136.036 135.251 136.082 135.333 136.154L136.527 137.192C136.504 136.147 136.577 135.325 136.746 134.727C136.909 134.123 137.185 133.597 137.575 133.149C138.103 132.542 138.73 132.238 139.455 132.238C139.844 132.244 140.283 132.352 140.774 132.561C140.711 131.741 140.715 131.076 140.785 130.567C140.906 129.689 141.221 128.959 141.729 128.375C142.555 127.426 143.492 127.129 144.541 127.482C145.136 127.679 145.905 128.187 146.848 129.008L150.517 132.2C150.935 132.564 151.301 132.722 151.613 132.672C151.924 132.612 152.314 132.361 152.782 131.918L153.011 132.118L149.542 136.105L149.295 135.89C149.694 135.336 149.883 134.911 149.862 134.613C149.847 134.31 149.594 133.945 149.105 133.519L145.295 130.204C144.723 129.707 144.248 129.402 143.869 129.29C143.196 129.087 142.583 129.304 142.029 129.941C141.695 130.324 141.491 130.814 141.417 131.412C141.374 131.758 141.377 132.232 141.424 132.832L145.95 136.77C146.428 137.186 146.862 137.419 147.253 137.469C147.649 137.513 148.092 137.272 148.582 136.745L148.812 136.945L145.281 141.003L145.051 140.803C145.467 140.182 145.642 139.707 145.575 139.38C145.508 139.052 145.083 138.547 144.299 137.865L141.823 135.711C140.916 134.922 140.24 134.437 139.795 134.257C139.048 133.949 138.401 134.111 137.852 134.741C137.539 135.101 137.332 135.542 137.229 136.064C137.121 136.581 137.111 137.11 137.199 137.652L142.034 141.86C142.482 142.25 142.858 142.442 143.163 142.438C143.472 142.427 143.858 142.163 144.32 141.643L144.55 141.843L141.05 145.866L140.82 145.666Z" fill="#333333"/>
<path d="M148.572 117.012C149.06 116.024 149.831 115.329 150.884 114.926C151.93 114.519 153.08 114.625 154.334 115.245L151.037 121.916C152.697 122.649 154.062 122.866 155.133 122.568C156.205 122.269 156.965 121.665 157.415 120.754C157.779 120.019 157.892 119.304 157.756 118.609C157.62 117.914 157.304 117.179 156.808 116.402L157.116 116.097C157.863 116.823 158.42 117.769 158.785 118.935C159.154 120.093 159.056 121.243 158.492 122.384C157.841 123.701 156.84 124.474 155.489 124.704C154.142 124.927 152.82 124.719 151.524 124.078C150.116 123.383 149.107 122.365 148.497 121.027C147.886 119.688 147.911 118.349 148.572 117.012ZM149.038 118C148.643 118.798 148.696 119.583 149.196 120.352C149.463 120.763 149.86 121.16 150.386 121.542L152.577 117.108C151.838 116.839 151.25 116.714 150.814 116.734C150.028 116.773 149.436 117.195 149.038 118Z" fill="#333333"/>
<path d="M153.958 102.955L154.769 103.187L154.11 105.486L160.593 107.367C161.164 107.531 161.609 107.606 161.93 107.592C162.5 107.56 162.86 107.281 163.011 106.756C163.088 106.485 163.091 106.234 163.02 106.002C162.95 105.763 162.813 105.476 162.608 105.141L162.94 104.919L163.207 105.264C163.621 105.805 163.874 106.324 163.967 106.822C164.06 107.32 164.048 107.772 163.932 108.178C163.678 109.064 163.112 109.552 162.233 109.641C161.755 109.691 161.137 109.608 160.379 109.39L153.552 107.434L153.2 108.662C153.167 108.694 153.136 108.717 153.107 108.733C153.08 108.742 153.048 108.741 153.01 108.73C152.935 108.708 152.883 108.677 152.854 108.636C152.82 108.586 152.753 108.449 152.655 108.226C152.375 107.585 152.136 107.114 151.938 106.814C151.734 106.503 151.183 105.76 150.285 104.585C150.313 104.487 150.336 104.433 150.356 104.422C150.377 104.404 150.437 104.409 150.534 104.437L153.306 105.231L153.958 102.955Z" fill="#333333"/>
<path d="M166.172 93.9501C166.954 94.0534 167.645 94.4321 168.244 95.0865C168.843 95.7408 169.247 96.4127 169.455 97.1022L168.961 97.2616C168.641 96.4628 168.256 95.8918 167.805 95.5486C167.354 95.1976 166.967 95.0007 166.641 94.9578C166.533 94.9435 166.459 94.9691 166.418 95.0347C166.378 95.1003 166.353 95.1719 166.343 95.2493L166.321 96.0385C166.279 96.3638 166.135 96.6482 165.89 96.8917C165.637 97.1341 165.309 97.2288 164.907 97.1756C164.597 97.1348 164.31 96.9826 164.045 96.7191C163.78 96.4557 163.682 96.0684 163.749 95.5572C163.813 95.0692 164.065 94.6571 164.503 94.321C164.934 93.9838 165.49 93.8602 166.172 93.9501Z" fill="#333333"/>
<path d="M154.429 73.2592C154.251 72.2991 154.347 71.427 154.718 70.6429C155.08 69.8526 155.556 69.4025 156.148 69.2926C156.401 69.2455 156.656 69.2896 156.911 69.4249C157.159 69.5616 157.317 69.8143 157.386 70.183C157.436 70.4518 157.388 70.7071 157.242 70.9487C157.095 71.1827 156.853 71.3785 156.517 71.5364L155.99 71.7774C155.601 71.9529 155.345 72.1792 155.222 72.4564C155.108 72.7398 155.089 73.0889 155.166 73.5037C155.329 74.3794 155.851 75.0492 156.731 75.5133C157.603 75.9712 158.673 76.0823 159.94 75.8469C161.1 75.6314 162.079 75.1077 162.878 74.2759C163.676 73.4364 163.97 72.4521 163.76 71.323C163.612 70.5241 163.218 69.8622 162.58 69.337C162.215 69.0394 161.665 68.7284 160.929 68.4042L161.065 68.0452C162.068 68.3118 162.883 68.6371 163.511 69.0211C164.713 69.7593 165.427 70.739 165.654 71.9603C165.877 73.1585 165.602 74.3063 164.828 75.4035C164.054 76.5008 162.857 77.2 161.237 77.5011C159.647 77.7965 158.186 77.5475 156.855 76.7539C155.523 75.9603 154.715 74.7954 154.429 73.2592Z" fill="#333333"/>
<path d="M157.589 62.4984C156.155 63.0978 154.754 63.1497 153.387 62.654C152.01 62.1542 151.021 61.187 150.422 59.7525C149.825 58.3252 149.8 56.9472 150.346 55.6186C150.891 54.2899 151.942 53.3003 153.499 52.6497C154.934 52.0503 156.371 51.9834 157.81 52.4489C159.249 52.9144 160.27 53.868 160.872 55.3097C161.451 56.6938 161.432 58.0775 160.816 59.4609C160.2 60.8444 159.125 61.8568 157.589 62.4984ZM151.197 59.7842C151.435 60.3537 151.829 60.7691 152.378 61.0306C153.335 61.4774 154.618 61.3649 156.225 60.6933C157.508 60.1571 158.585 59.3688 159.454 58.3283C160.32 57.2805 160.538 56.2413 160.107 55.2104C159.77 54.4031 159.139 53.9383 158.216 53.816C157.29 53.6865 156.225 53.8732 155.021 54.3762C153.774 54.8973 152.715 55.6658 151.844 56.6817C150.973 57.6976 150.757 58.7317 151.197 59.7842Z" fill="#333333"/>
<path d="M155.006 44.8592C154.629 44.4465 154.294 44.2093 154.002 44.1476C153.699 44.084 153.254 44.2594 152.666 44.6737L147.811 48.0982C147.403 48.3864 147.142 48.6273 147.03 48.821C146.873 49.1134 146.928 49.4479 147.193 49.8246C147.234 49.8821 147.28 49.9405 147.331 49.9998C147.378 50.0528 147.44 50.1194 147.515 50.1998L147.18 50.4362C146.919 50.2285 146.284 49.7488 145.276 48.9972L144.344 48.3064C144.313 48.2617 144.311 48.2249 144.338 48.196C144.361 48.1607 144.401 48.1228 144.459 48.0823L145.866 47.0894C144.903 46.8893 144.202 46.6953 143.764 46.5074C143.1 46.2301 142.579 45.8233 142.2 45.287C141.894 44.8529 141.739 44.3693 141.736 43.8361C141.735 42.8044 142.357 41.8495 143.602 40.9714L148.074 37.8171C148.534 37.4929 148.8 37.1662 148.874 36.8369C148.948 36.5077 148.835 36.1237 148.535 35.6851L148.803 35.496L151.687 39.5851L151.419 39.7742C151.027 39.3532 150.669 39.1177 150.347 39.0676C150.019 39.0221 149.529 39.2289 148.878 39.6882L144.789 42.5724C144.24 42.9596 143.858 43.3815 143.645 43.838C143.425 44.2989 143.509 44.8039 143.896 45.353C144.162 45.7296 144.56 46.0226 145.09 46.232C145.39 46.3455 145.83 46.4552 146.412 46.5613L151.775 42.7788C152.234 42.4546 152.472 42.1341 152.487 41.8172C152.496 41.5048 152.352 41.1239 152.054 40.6744L152.322 40.4853L155.274 44.6701L155.006 44.8592Z" fill="#333333"/>
<path d="M141.474 32.9747L141.191 32.7108C141.667 31.9371 141.956 31.2721 142.059 30.7158C142.256 29.7029 141.969 28.8367 141.198 28.1172C140.77 27.7174 140.323 27.52 139.859 27.525C139.384 27.5304 138.97 27.7215 138.619 28.0985C138.395 28.3384 138.25 28.6364 138.185 28.9924C138.12 29.3484 138.169 29.8 138.332 30.3471L138.779 31.7909C139.13 32.8235 139.293 33.6857 139.267 34.3775C139.241 35.0694 138.986 35.6752 138.501 36.195C137.904 36.8347 137.185 37.147 136.344 37.1318C135.503 37.1166 134.737 36.7866 134.046 36.1416C133.744 35.8591 133.466 35.4929 133.212 35.0428C132.953 34.5875 132.801 34.3385 132.755 34.2958C132.653 34.1999 132.565 34.1449 132.493 34.1308C132.42 34.1167 132.338 34.1251 132.245 34.1559L132.039 33.9641L134.21 31.5177L134.475 31.7656C134.073 32.4262 133.824 33.0014 133.731 33.491C133.552 34.3927 133.797 35.1553 134.465 35.7789C134.865 36.152 135.293 36.3224 135.751 36.29C136.209 36.2576 136.592 36.0758 136.901 35.7445C137.392 35.219 137.435 34.3828 137.03 33.236L136.467 31.5724C135.869 29.7745 135.98 28.4357 136.801 27.5561C137.43 26.8821 138.198 26.5681 139.106 26.6141C140.009 26.6548 140.868 27.0562 141.685 27.8184C142.028 28.1382 142.363 28.5578 142.69 29.0771C143.018 29.5964 143.222 29.8934 143.302 29.968C143.37 30.032 143.454 30.0623 143.553 30.0588C143.648 30.0611 143.741 30.0413 143.833 29.9994L144.056 30.2073L141.474 32.9747Z" fill="#333333"/>
<path d="M46.5255 17.1728C45.9555 17.6151 45.6228 17.9785 45.5276 18.2631C45.4365 18.5543 45.5605 18.9625 45.8993 19.4876L48.765 23.9285C49.1844 24.5783 49.5453 25.0009 49.848 25.1961C50.1483 25.4021 50.4593 25.4014 50.7809 25.1938C50.8466 25.1514 50.9288 25.0844 51.0277 24.9927C51.1243 24.9118 51.2232 24.8201 51.3244 24.7176L51.5341 25.0425C51.2446 25.4153 50.9474 25.7976 50.6425 26.1897C50.3376 26.5817 50.1287 26.8559 50.0159 27.0124C49.7681 27.349 49.5211 27.7082 49.2749 28.0903C49.2289 28.12 49.1921 28.1205 49.1644 28.0919C49.13 28.0675 49.079 28.0029 49.0112 27.8978L47.9692 26.283C47.9261 27.1383 47.8167 27.8551 47.6412 28.4332C47.4592 29.0156 47.1581 29.4423 46.738 29.7134C46.4032 29.9295 46.0651 30.0035 45.7237 29.9356C45.3866 29.8742 45.1206 29.6925 44.9257 29.3905C44.752 29.1214 44.688 28.842 44.7335 28.5523C44.7724 28.2668 44.9133 28.0457 45.1562 27.889C45.4056 27.728 45.7325 27.6798 46.1368 27.7444C46.5345 27.8131 46.8055 27.8009 46.95 27.7077C47.1797 27.5595 47.3413 27.1903 47.4346 26.6C47.5322 26.0164 47.4539 25.5277 47.1997 25.1338L44.3341 20.693C43.9698 20.1284 43.5843 19.8193 43.1777 19.7655C42.7754 19.7183 42.2732 19.8983 41.6711 20.3054L41.4615 19.9804L46.3159 16.8479L46.5255 17.1728Z" fill="#333333"/>
</svg>
